<?xml version="1.0" encoding="UTF-8"?>
<svg id="Layer_1" xmlns="http://www.w3.org/2000/svg" version="1.1" viewBox="0 0 165 40">
  <!-- Generator: Adobe Illustrator 30.1.0, SVG Export Plug-In . SVG Version: 2.1.1 Build 136)  -->
  <defs>
    <style>
      .st0 {
        font-family: Balto-Black, Balto;
        font-weight: 800;
      }

      .st0, .st1, .st2, .st3, .st4 {
        isolation: isolate;
      }

      .st0, .st4 {
        font-size: 15.9px;
      }

      .st5 {
        fill: #fff;
      }

      .st2 {
        font-size: 12px;
      }

      .st2, .st3, .st4 {
        font-family: Vary-Bold, Vary;
        font-weight: 700;
      }

      .st3 {
        font-size: 15px;
      }
    </style>
  </defs>
  <g>
    <path d="M-362.1,50v26.5h26.5v-26.5h-26.5ZM-352.7,55.7l3.8,6.2,3.8-6.2h1.6l-5.4,8.7-5.4-8.7h1.6ZM-353.2,70.9h-1.4v-9.5l1.4,2.2v7.3ZM-343.2,70.9h-1.4v-7.3l1.4-2.2v9.5ZM-340.8,70.9h-1.4v-12.8l-4.5,7.2-1.3,2.2h-1.7l-1.3-2.2-4.5-7.2v12.8h-1.4v-15.2h1.5l5.2,8.4,1.4,2.1,1.4-2.1,5.2-8.3h1.5v15.2h-.1Z"/>
    <g>
      <path d="M-316.3,55.5h2.8v15.5h-3v-9.9l-3.5,5.7h-1.7l-3.6-5.7v9.9h-3v-15.5h2.9l4.5,7.3,4.6-7.3h0Z"/>
      <path d="M-303.3,70c-1,.8-2.1,1.3-3.5,1.3-3.1,0-5.7-2.3-5.7-5.4s2.4-5.4,5.5-5.4,2.6.5,3.5,1.3l-2,2c-.4-.3-.9-.5-1.5-.5-1.4,0-2.6,1.1-2.6,2.6s1.3,2.6,2.7,2.6,1.1-.2,1.5-.5l2,2h.1Z"/>
      <path d="M-292.1,59c-.7-.4-1.6-.8-2.6-.8-2.7,0-4.9,2.2-4.9,5s2.3,5,4.9,5,1.9-.3,2.6-.7l1.8,2.5c-1.2.8-2.7,1.3-4.3,1.3-4.4,0-8-3.5-8-8s3.6-8,8-8,3.1.5,4.3,1.3l-1.7,2.5h0Z"/>
      <path d="M-286.6,55.3v15.8h-3.1v-15.8h3.1Z"/>
      <path d="M-277.4,60.8h2.9v10.2h-2.9v-.7c-.8.6-1.9,1-3,1-2.9,0-5.3-2.3-5.3-5.4s2.4-5.4,5.3-5.4,2.2.4,3,.9v-.7h0ZM-277.6,67.4v-2.9c-.5-.8-1.3-1.3-2.3-1.3s-2.7,1.2-2.7,2.7,1.3,2.7,2.7,2.7,1.8-.5,2.3-1.2Z"/>
      <path d="M-264.1,70c-.7.6-1.7,1.3-3.3,1.3-2.5,0-4.3-1.8-4.3-4.7v-3.2h-1.6v-2.6h1.6v-2.9h3.1v2.9h3.5v2.6h-3.5v3.1c0,1.1.5,1.9,1.5,1.9s1-.3,1.3-.5l1.7,2.2h0Z"/>
      <path d="M-255.4,70c-1,.8-2.1,1.3-3.5,1.3-3.1,0-5.7-2.3-5.7-5.4s2.4-5.4,5.5-5.4,2.6.5,3.5,1.3l-2,2c-.4-.3-.9-.5-1.5-.5-1.4,0-2.6,1.1-2.6,2.6s1.3,2.6,2.7,2.6,1.1-.2,1.5-.5l2,2h.1Z"/>
      <path d="M-243.6,66.1v4.9h-3.1v-4.9c0-2.1-1-2.8-2.3-2.8s-1.9.6-2.3,1.3v6.5h-3.1v-15.8h3v6.4c.9-.7,1.9-1.1,3.1-1.1,2.4,0,4.8,1.6,4.8,5.5h0Z"/>
      <path d="M-235.7,60.8h3.3l-5.2,15.5h-3.3l1.7-5.1h-1l-3.4-10.4h3.2l2.3,8.1s2.4-8.1,2.4-8.1Z"/>
    </g>
    <g class="st1">
      <text class="st2" transform="translate(-226.6 61)"><tspan x="0" y="0">AD</tspan></text>
      <text class="st2" transform="translate(-226.6 73.5)"><tspan x="0" y="0">MANAGER</tspan></text>
    </g>
  </g>
  <g>
    <path d="M-362.1,108.7v26.5h26.5v-26.5h-26.5ZM-352.7,114.3l3.8,6.2,3.8-6.2h1.6l-5.4,8.7-5.4-8.7h1.6ZM-353.2,129.5h-1.4v-9.5l1.4,2.2v7.3ZM-343.2,129.5h-1.4v-7.3l1.4-2.2v9.5ZM-340.8,129.5h-1.4v-12.8l-4.5,7.2-1.3,2.2h-1.7l-1.3-2.2-4.5-7.2v12.8h-1.4v-15.2h1.5l5.2,8.4,1.4,2.1,1.4-2.1,5.2-8.3h1.5v15.2h-.1Z"/>
    <g>
      <path d="M-316.3,114.2h2.8v15.5h-3v-9.9l-3.5,5.7h-1.7l-3.6-5.7v9.9h-3v-15.5h2.9l4.5,7.3,4.6-7.3h0Z"/>
      <path d="M-303.3,128.7c-1,.8-2.1,1.3-3.5,1.3-3.1,0-5.7-2.3-5.7-5.4s2.4-5.4,5.5-5.4,2.6.5,3.5,1.3l-2,2c-.4-.3-.9-.5-1.5-.5-1.4,0-2.6,1.1-2.6,2.6s1.3,2.6,2.7,2.6,1.1-.2,1.5-.5l2,2h.1Z"/>
      <path d="M-292.1,117.7c-.7-.4-1.6-.8-2.6-.8-2.7,0-4.9,2.2-4.9,5s2.3,5,4.9,5,1.9-.3,2.6-.7l1.8,2.5c-1.2.8-2.7,1.3-4.3,1.3-4.4,0-8-3.5-8-8s3.6-8,8-8,3.1.5,4.3,1.3l-1.7,2.5h0Z"/>
      <path d="M-286.6,113.9v15.8h-3.1v-15.8s3.1,0,3.1,0Z"/>
      <path d="M-277.4,119.5h2.9v10.2h-2.9v-.7c-.8.6-1.9,1-3,1-2.9,0-5.3-2.3-5.3-5.4s2.4-5.4,5.3-5.4,2.2.4,3,.9v-.7h0ZM-277.6,126v-2.9c-.5-.8-1.3-1.3-2.3-1.3s-2.7,1.2-2.7,2.7,1.3,2.7,2.7,2.7,1.8-.5,2.3-1.2Z"/>
      <path d="M-264.1,128.7c-.7.6-1.7,1.3-3.3,1.3-2.5,0-4.3-1.8-4.3-4.7v-3.2h-1.6v-2.6h1.6v-2.9h3.1v2.9h3.5v2.6h-3.5v3.1c0,1.1.5,1.9,1.5,1.9s1-.3,1.3-.5l1.7,2.2h0Z"/>
      <path d="M-255.4,128.7c-1,.8-2.1,1.3-3.5,1.3-3.1,0-5.7-2.3-5.7-5.4s2.4-5.4,5.5-5.4,2.6.5,3.5,1.3l-2,2c-.4-.3-.9-.5-1.5-.5-1.4,0-2.6,1.1-2.6,2.6s1.3,2.6,2.7,2.6,1.1-.2,1.5-.5l2,2h.1Z"/>
      <path d="M-243.6,124.8v4.9h-3.1v-4.9c0-2.1-1-2.8-2.3-2.8s-1.9.6-2.3,1.3v6.5h-3.1v-15.8h3v6.4c.9-.7,1.9-1.1,3.1-1.1,2.4,0,4.8,1.6,4.8,5.5h0Z"/>
      <path d="M-235.7,119.5h3.3l-5.2,15.5h-3.3l1.7-5.1h-1l-3.4-10.4h3.2l2.3,8.1s2.4-8.1,2.4-8.1Z"/>
    </g>
  </g>
  <g>
    <path d="M-220.6,119.7l-.4-1.4h-3.4l-.5,1.4h-1.6l2.8-8.2h1.9l2.8,8.2h-1.6ZM-224,116.9h2.4l-1.2-3.7-1.2,3.7Z"/>
    <path d="M-215.3,111.5c2.4,0,4.1,1.6,4.1,4.1s-1.7,4.1-4.1,4.1h-2.9v-8.2h2.9ZM-215.3,118.2c1.4,0,2.5-1.1,2.5-2.6s-1.1-2.6-2.5-2.6h-1.3v5.2h1.3Z"/>
    <path d="M-219.5,124h1.5v8.2h-1.6v-5.2l-1.9,3h-.9l-1.9-3v5.2h-1.6v-8.2h1.5l2.4,3.8,2.4-3.8h.1Z"/>
    <path d="M-211.3,132.2l-.4-1.4h-3.4l-.5,1.4h-1.6l2.8-8.2h1.9l2.8,8.2h-1.6ZM-214.7,129.4h2.4l-1.2-3.7-1.2,3.7Z"/>
    <path d="M-203.7,124h1.6v8.2h-1.5l-3.6-5.5v5.5h-1.6v-8.2h1.5l3.6,5.4s0-5.4,0-5.4Z"/>
    <path d="M-195.4,132.2l-.4-1.4h-3.4l-.5,1.4h-1.6l2.8-8.2h1.9l2.8,8.2h-1.6ZM-198.7,129.4h2.4l-1.2-3.7-1.2,3.7Z"/>
    <path d="M-189.6,127.4h3.6v3c-.8,1.2-2.1,1.9-3.6,1.9-2.5,0-4.3-1.8-4.3-4.2s1.8-4.2,4.2-4.2,1.6.3,2.2.6l-.8,1.3c-.4-.2-.9-.4-1.4-.4-1.6,0-2.7,1.2-2.7,2.7s1,2.7,2.7,2.7,1.7-.5,2.1-1v-1h-2.1v-1.4h.1Z"/>
    <path d="M-179.6,125.5h-3.7v1.9h3.6v1.4h-3.6v2h3.7v1.5h-5.3v-8.2h5.3v1.5h0Z"/>
    <path d="M-172.3,132.2h-1.8l-1.5-2.9h-1v2.9h-1.6v-8.2h2.8c1.7,0,2.9,1,2.9,2.6s-.6,2-1.6,2.4l1.7,3.2h.1ZM-176.6,125.5v2.4h1.3c.7,0,1.3-.4,1.3-1.2s-.6-1.2-1.3-1.2c0,0-1.3,0-1.3,0Z"/>
  </g>
  <g>
    <path class="st5" d="M-362.1,185.3v26.5h26.5v-26.5h-26.5ZM-352.7,191l3.8,6.2,3.8-6.2h1.6l-5.4,8.7-5.4-8.7h1.6ZM-353.2,206.2h-1.4v-9.5l1.4,2.2v7.3ZM-343.2,206.2h-1.4v-7.3l1.4-2.2v9.5ZM-340.8,206.2h-1.4v-12.8l-4.5,7.2-1.3,2.2h-1.7l-1.3-2.2-4.5-7.2v12.8h-1.4v-15.2h1.5l5.2,8.4,1.4,2.1,1.4-2.1,5.2-8.3h1.5v15.2h-.1Z"/>
    <g>
      <path class="st5" d="M-316.3,190.8h2.8v15.5h-3v-9.9l-3.5,5.7h-1.7l-3.6-5.7v9.9h-3v-15.5h2.9l4.5,7.3,4.6-7.3h0Z"/>
      <path class="st5" d="M-303.3,205.3c-1,.8-2.1,1.3-3.5,1.3-3.1,0-5.7-2.3-5.7-5.4s2.4-5.4,5.5-5.4,2.6.5,3.5,1.3l-2,2c-.4-.3-.9-.5-1.5-.5-1.4,0-2.6,1.1-2.6,2.6s1.3,2.6,2.7,2.6,1.1-.2,1.5-.5l2,2h.1Z"/>
      <path class="st5" d="M-292.1,194.3c-.7-.4-1.6-.8-2.6-.8-2.7,0-4.9,2.2-4.9,5s2.3,5,4.9,5,1.9-.3,2.6-.7l1.8,2.5c-1.2.8-2.7,1.3-4.3,1.3-4.4,0-8-3.5-8-8s3.6-8,8-8,3.1.5,4.3,1.3l-1.7,2.5h0Z"/>
      <path class="st5" d="M-286.6,190.6v15.8h-3.1v-15.8h3.1Z"/>
      <path class="st5" d="M-277.4,196.1h2.9v10.2h-2.9v-.7c-.8.6-1.9,1-3,1-2.9,0-5.3-2.3-5.3-5.4s2.4-5.4,5.3-5.4,2.2.4,3,.9v-.7h0ZM-277.6,202.7v-2.9c-.5-.8-1.3-1.3-2.3-1.3s-2.7,1.2-2.7,2.7,1.3,2.7,2.7,2.7,1.8-.5,2.3-1.2Z"/>
      <path class="st5" d="M-264.1,205.3c-.7.6-1.7,1.3-3.3,1.3-2.5,0-4.3-1.8-4.3-4.7v-3.2h-1.6v-2.6h1.6v-2.9h3.1v2.9h3.5v2.6h-3.5v3.1c0,1.1.5,1.9,1.5,1.9s1-.3,1.3-.5l1.7,2.2h0Z"/>
      <path class="st5" d="M-255.4,205.3c-1,.8-2.1,1.3-3.5,1.3-3.1,0-5.7-2.3-5.7-5.4s2.4-5.4,5.5-5.4,2.6.5,3.5,1.3l-2,2c-.4-.3-.9-.5-1.5-.5-1.4,0-2.6,1.1-2.6,2.6s1.3,2.6,2.7,2.6,1.1-.2,1.5-.5l2,2h.1Z"/>
      <path class="st5" d="M-243.6,201.4v4.9h-3.1v-4.9c0-2.1-1-2.8-2.3-2.8s-1.9.6-2.3,1.3v6.5h-3.1v-15.8h3v6.4c.9-.7,1.9-1.1,3.1-1.1,2.4,0,4.8,1.6,4.8,5.5h0Z"/>
      <path class="st5" d="M-235.7,196.1h3.3l-5.2,15.5h-3.3l1.7-5.1h-1l-3.4-10.4h3.2l2.3,8.1,2.4-8.1Z"/>
    </g>
  </g>
  <g>
    <path class="st5" d="M-220.6,196.4l-.4-1.4h-3.4l-.5,1.4h-1.6l2.8-8.2h1.9l2.8,8.2h-1.6ZM-224,193.6h2.4l-1.2-3.7-1.2,3.7Z"/>
    <path class="st5" d="M-215.3,188.2c2.4,0,4.1,1.6,4.1,4.1s-1.7,4.1-4.1,4.1h-2.9v-8.2h2.9ZM-215.3,194.8c1.4,0,2.5-1.1,2.5-2.6s-1.1-2.6-2.5-2.6h-1.3v5.2h1.3Z"/>
    <path class="st5" d="M-219.5,200.7h1.5v8.2h-1.6v-5.2l-1.9,3h-.9l-1.9-3v5.2h-1.6v-8.2h1.5l2.4,3.8,2.4-3.8h.1Z"/>
    <path class="st5" d="M-211.3,208.9l-.4-1.4h-3.4l-.5,1.4h-1.6l2.8-8.2h1.9l2.8,8.2h-1.6ZM-214.7,206.1h2.4l-1.2-3.7-1.2,3.7Z"/>
    <path class="st5" d="M-203.7,200.7h1.6v8.2h-1.5l-3.6-5.5v5.5h-1.6v-8.2h1.5l3.6,5.4v-5.4Z"/>
    <path class="st5" d="M-195.4,208.9l-.4-1.4h-3.4l-.5,1.4h-1.6l2.8-8.2h1.9l2.8,8.2h-1.6ZM-198.7,206.1h2.4l-1.2-3.7-1.2,3.7Z"/>
    <path class="st5" d="M-189.6,204h3.6v3c-.8,1.2-2.1,1.9-3.6,1.9-2.5,0-4.3-1.8-4.3-4.2s1.8-4.2,4.2-4.2,1.6.3,2.2.6l-.8,1.3c-.4-.2-.9-.4-1.4-.4-1.6,0-2.7,1.2-2.7,2.7s1,2.7,2.7,2.7,1.7-.5,2.1-1v-1h-2.1v-1.4h.1Z"/>
    <path class="st5" d="M-179.6,202.1h-3.7v1.9h3.6v1.4h-3.6v2h3.7v1.5h-5.3v-8.2h5.3v1.5h0Z"/>
    <path class="st5" d="M-172.3,208.9h-1.8l-1.5-2.9h-1v2.9h-1.6v-8.2h2.8c1.7,0,2.9,1,2.9,2.6s-.6,2-1.6,2.4l1.7,3.2h.1ZM-176.6,202.1v2.4h1.3c.7,0,1.3-.4,1.3-1.2s-.6-1.2-1.3-1.2h-1.3Z"/>
  </g>
  <g>
    <path d="M-62.2,331.4v56.3H-5.9v-56.3h-56.3ZM-42.2,343.4l8.1,13.1,8.1-13.1h3.5l-11.6,18.6-11.6-18.6s3.5,0,3.5,0ZM-43.3,375.7h-2.9v-20.2l2.9,4.7v15.5ZM-21.9,375.7h-2.9v-15.5l2.9-4.7v20.2ZM-17,375.7h-2.9v-27.2l-9.5,15.4-2.7,4.6h-3.7l-2.8-4.6-9.5-15.4v27.2h-2.9v-32.3h3.2l11,17.8,2.9,4.5,2.9-4.5,11-17.7h3.2v32.3h-.2Z"/>
    <g>
      <path d="M-76.3,409h3.3v18.3h-3.5v-11.6l-4.2,6.7h-2l-4.2-6.7v11.6h-3.5v-18.3h3.4l5.3,8.5,5.4-8.5h0Z"/>
      <path d="M-61,426.1c-1.1.9-2.5,1.5-4.1,1.5-3.6,0-6.7-2.7-6.7-6.3s2.8-6.3,6.5-6.3,3,.6,4.1,1.5l-2.4,2.3c-.5-.4-1.1-.6-1.7-.6-1.6,0-3,1.3-3,3s1.5,3,3.2,3,1.3-.2,1.8-.6l2.4,2.4h-.1Z"/>
      <path d="M-47.9,413.2c-.9-.5-1.8-.9-3-.9-3.2,0-5.8,2.6-5.8,5.9s2.6,5.8,5.8,5.8,2.2-.3,3-.9l2.1,3c-1.4,1-3.2,1.5-5.1,1.5-5.2,0-9.5-4.1-9.5-9.4s4.3-9.5,9.5-9.5,3.6.5,5,1.5l-2,3Z"/>
      <path d="M-41.5,408.8v18.5h-3.6v-18.5h3.6Z"/>
      <path d="M-30.6,415.3h3.5v12h-3.5v-.8c-1,.7-2.2,1.1-3.6,1.1-3.4,0-6.2-2.7-6.2-6.3s2.8-6.3,6.2-6.3,2.6.4,3.6,1.1v-.8h0ZM-30.8,423v-3.4c-.6-.9-1.6-1.5-2.7-1.5-1.7,0-3.2,1.4-3.2,3.2s1.5,3.2,3.2,3.2,2.2-.6,2.7-1.5h0Z"/>
      <path d="M-15,426.1c-.8.7-2,1.5-3.9,1.5-2.9,0-5.1-2.1-5.1-5.6v-3.7h-1.8v-3h1.8v-3.4h3.7v3.4h4.1v3h-4.1v3.7c0,1.3.6,2.2,1.8,2.2s1.2-.3,1.6-.6l2,2.6h-.1Z"/>
      <path d="M-4.8,426.1c-1.1.9-2.5,1.5-4.1,1.5-3.6,0-6.7-2.7-6.7-6.3s2.8-6.3,6.5-6.3,3,.6,4.1,1.5l-2.4,2.3c-.5-.4-1.1-.6-1.7-.6-1.6,0-3,1.3-3,3s1.5,3,3.2,3,1.3-.2,1.8-.6l2.4,2.4h-.1Z"/>
      <path d="M9.1,421.5v5.8h-3.7v-5.8c0-2.4-1.1-3.3-2.7-3.3s-2.2.7-2.8,1.5v7.6h-3.7v-18.5H-.2v7.5c1-.8,2.3-1.3,3.7-1.3,2.9,0,5.6,1.8,5.6,6.5h0Z"/>
      <path d="M18.4,415.3h3.8l-6.1,18.3h-3.9l2-6h-1.2l-4-12.3h3.8l2.7,9.5,2.8-9.5h.1Z"/>
    </g>
  </g>
  <g class="st1">
    <text class="st4" transform="translate(-99.1 455.6)"><tspan x="0" y="0">RETAIL</tspan></text>
    <text class="st0" transform="translate(-48.9 455.6)"><tspan x="0" y="0"> </tspan></text>
    <text class="st4" transform="translate(-45.5 455.6)"><tspan x="0" y="0">NETWORK</tspan></text>
  </g>
  <g>
    <g>
      <path d="M-113.5-61.3V-5h56.3v-56.3h-56.3ZM-93.5-49.3l8.1,13.1,8.1-13.1h3.5l-11.6,18.6-11.6-18.6s3.5,0,3.5,0ZM-94.6-17h-2.9v-20.2l2.9,4.7v15.5ZM-73.2-17h-2.9v-15.5l2.9-4.7v20.2ZM-68.3-17h-2.9v-27.2l-9.5,15.4-2.7,4.6h-3.7l-2.8-4.6-9.5-15.4v27.2h-2.9v-32.3h3.2l11,17.8,2.9,4.5,2.9-4.5,11-17.7h3.2V-17h-.2Z"/>
      <g>
        <path d="M-119.9,16.3h2.7v15h-2.9v-9.5l-3.4,5.5h-1.7l-3.4-5.5v9.5h-2.9v-15h2.8l4.4,7s4.4-7,4.4-7Z"/>
        <path d="M-107.4,30.3c-.9.8-2,1.2-3.4,1.2-3,0-5.5-2.2-5.5-5.2s2.3-5.2,5.3-5.2,2.5.5,3.4,1.3l-1.9,1.9c-.4-.3-.9-.5-1.4-.5-1.3,0-2.5,1.1-2.5,2.5s1.3,2.5,2.6,2.5,1-.2,1.4-.5l1.9,1.9h0Z"/>
        <path d="M-96.7,19.7c-.7-.4-1.5-.7-2.5-.7-2.6,0-4.8,2.1-4.8,4.8s2.2,4.8,4.8,4.8,1.8-.3,2.5-.7l1.7,2.4c-1.2.8-2.6,1.3-4.2,1.3-4.3,0-7.7-3.3-7.7-7.7s3.5-7.7,7.7-7.7,3,.4,4.1,1.2l-1.7,2.5v-.2Z"/>
        <path d="M-91.4,16v15.2h-2.9v-15.2h2.9Z"/>
        <path d="M-82.5,21.4h2.8v9.8h-2.8v-.7c-.8.6-1.8.9-2.9.9-2.8,0-5.1-2.2-5.1-5.2s2.3-5.2,5.1-5.2,2.1.4,2.9.9v-.7.2ZM-82.7,27.7v-2.8c-.5-.7-1.3-1.2-2.2-1.2-1.4,0-2.6,1.1-2.6,2.6s1.2,2.6,2.6,2.6,1.8-.5,2.2-1.2Z"/>
        <path d="M-69.7,30.3c-.7.5-1.7,1.2-3.2,1.2-2.4,0-4.1-1.8-4.1-4.6v-3.1h-1.5v-2.5h1.5v-2.8h3v2.8h3.3v2.5h-3.3v3c0,1.1.5,1.8,1.5,1.8s1-.3,1.3-.5l1.6,2.1h-.1Z"/>
        <path d="M-61.3,30.3c-.9.8-2,1.2-3.4,1.2-3,0-5.5-2.2-5.5-5.2s2.3-5.2,5.3-5.2,2.5.5,3.4,1.3l-1.9,1.9c-.4-.3-.9-.5-1.4-.5-1.3,0-2.5,1.1-2.5,2.5s1.3,2.5,2.6,2.5,1-.2,1.4-.5l1.9,1.9h0Z"/>
        <path d="M-49.9,26.5v4.8h-3v-4.8c0-2-.9-2.7-2.2-2.7s-1.8.6-2.3,1.3v6.2h-3v-15.2h2.9v6.2c.8-.7,1.9-1.1,3-1.1,2.3,0,4.6,1.5,4.6,5.3Z"/>
        <path d="M-42.3,21.4h3.1l-5,15h-3.2l1.7-4.9h-1l-3.3-10.1h3.1l2.2,7.8,2.3-7.8h.1Z"/>
      </g>
    </g>
    <g class="st1">
      <text class="st3" transform="translate(-131.6 59.7)"><tspan x="0" y="0">AD MANAGER</tspan></text>
    </g>
  </g>
  <g>
    <path class="st5" d="M0,8.2v22.9h22.9V8.2H0ZM8.2,13.1l3.3,5.3,3.3-5.3h1.4l-4.7,7.6-4.7-7.6s1.4,0,1.4,0ZM7.7,26.3h-1.2v-8.2l1.2,1.9v6.3ZM16.4,26.3h-1.2v-6.3l1.2-1.9v8.2ZM18.4,26.3h-1.2v-11.1l-3.9,6.3-1.1,1.9h-1.5l-1.1-1.9-3.9-6.3v11.1h-1.2v-13.2h1.3l4.5,7.2,1.2,1.8,1.2-1.8,4.5-7.2h1.3v13.2h0Z"/>
    <g>
      <path class="st5" d="M39.7,13h2.4v13.5h-2.6v-8.6l-3.1,4.9h-1.5l-3.1-4.9v8.5h-2.6v-13.5h2.5l3.9,6.3,4-6.3h0Z"/>
      <path class="st5" d="M51,25.6c-.8.7-1.8,1.1-3,1.1-2.7,0-4.9-2-4.9-4.7s2.1-4.6,4.8-4.6,2.2.4,3,1.1l-1.7,1.7c-.3-.3-.8-.4-1.3-.4-1.2,0-2.2,1-2.2,2.2s1.1,2.2,2.3,2.2.9-.2,1.3-.4l1.8,1.8h0Z"/>
      <path class="st5" d="M60.7,16c-.6-.4-1.4-.7-2.2-.7-2.3,0-4.3,1.9-4.3,4.3s2,4.3,4.3,4.3,1.6-.3,2.2-.6l1.5,2.2c-1,.7-2.3,1.1-3.8,1.1-3.8,0-7-3-7-7s3.1-7,7-7,2.7.4,3.7,1.1l-1.5,2.2h0Z"/>
      <path class="st5" d="M65.4,12.8v13.7h-2.6v-13.7h2.6Z"/>
      <path class="st5" d="M73.4,17.6h2.5v8.8h-2.5v-.6c-.7.5-1.6.8-2.6.8-2.5,0-4.6-2-4.6-4.6s2-4.7,4.6-4.7,1.9.3,2.6.8v-.6h0ZM73.2,23.3v-2.5c-.4-.7-1.2-1.1-2-1.1-1.2,0-2.3,1-2.3,2.3s1.1,2.3,2.3,2.3,1.6-.4,2-1.1h0Z"/>
      <path class="st5" d="M84.9,25.6c-.6.5-1.5,1.1-2.9,1.1-2.2,0-3.7-1.6-3.7-4.1v-2.7h-1.3v-2.2h1.3v-2.5h2.7v2.5h3v2.2h-3v2.7c0,1,.5,1.6,1.3,1.6s.9-.2,1.1-.5l1.4,1.9h0Z"/>
      <path class="st5" d="M92.4,25.6c-.8.7-1.8,1.1-3,1.1-2.7,0-4.9-2-4.9-4.7s2.1-4.6,4.8-4.6,2.2.4,3,1.1l-1.7,1.7c-.3-.3-.8-.4-1.3-.4-1.2,0-2.2,1-2.2,2.2s1.1,2.2,2.3,2.2.9-.2,1.3-.4l1.8,1.8h-.1Z"/>
      <path class="st5" d="M102.7,22.2v4.3h-2.7v-4.3c0-1.8-.8-2.5-2-2.5s-1.6.5-2,1.1v5.6h-2.7v-13.7h2.6v5.6c.8-.6,1.7-1,2.7-1,2.1,0,4.2,1.3,4.2,4.8h0Z"/>
      <path class="st5" d="M109.5,17.6h2.8l-4.5,13.5h-2.8l1.5-4.4h-.9l-2.9-9h2.8l2,7,2.1-7h0Z"/>
    </g>
    <g class="st1">
      <g class="st1">
        <path class="st5" d="M122.6,17.7l-.4-1.2h-2.9l-.4,1.2h-1.4l2.4-7.1h1.7l2.4,7.1h-1.4ZM119.7,15.3h2.1l-1.1-3.2-1.1,3.2Z"/>
        <path class="st5" d="M127.2,10.6c2.1,0,3.5,1.4,3.5,3.6s-1.5,3.6-3.5,3.6h-2.5v-7.1h2.5ZM127.2,16.4c1.3,0,2.2-.9,2.2-2.2s-.9-2.2-2.2-2.2h-1.1v4.5h1.1Z"/>
      </g>
      <g class="st1">
        <path class="st5" d="M123.5,21.4h1.3v7.1h-1.4v-4.5l-1.6,2.6h-.8l-1.6-2.6v4.5h-1.4v-7.1h1.3l2.1,3.3,2.1-3.3Z"/>
        <path class="st5" d="M130.6,28.5l-.4-1.2h-2.9l-.4,1.2h-1.4l2.4-7.1h1.7l2.4,7.1h-1.4ZM127.7,26.1h2.1l-1.1-3.2-1.1,3.2Z"/>
        <path class="st5" d="M137.2,21.4h1.4v7.1h-1.3l-3.2-4.7v4.7h-1.4v-7.1h1.3l3.2,4.7v-4.7Z"/>
        <path class="st5" d="M144.4,28.5l-.4-1.2h-2.9l-.4,1.2h-1.4l2.4-7.1h1.7l2.4,7.1h-1.4ZM141.5,26.1h2.1l-1.1-3.2-1.1,3.2Z"/>
        <path class="st5" d="M149.5,24.3h3.1v2.6c-.7,1-1.8,1.7-3.1,1.7-2.2,0-3.7-1.6-3.7-3.7s1.6-3.7,3.7-3.7,1.4.2,1.9.5l-.7,1.2c-.3-.2-.8-.3-1.2-.3-1.4,0-2.3,1-2.3,2.3s.9,2.3,2.3,2.3,1.5-.4,1.8-.9v-.9h-1.9v-1.2Z"/>
        <path class="st5" d="M158.1,22.7h-3.2v1.6h3.1v1.2h-3.1v1.8h3.2v1.3h-4.6v-7.1h4.6v1.3Z"/>
        <path class="st5" d="M164.4,28.5h-1.5l-1.3-2.5h-.9v2.5h-1.4v-7.1h2.5c1.4,0,2.5.9,2.5,2.3s-.5,1.7-1.3,2.1l1.5,2.7ZM160.7,22.7v2.1h1.1c.6,0,1.1-.4,1.1-1s-.5-1-1.1-1h-1.1Z"/>
      </g>
    </g>
  </g>
</svg>