<?xml version="1.0" encoding="UTF-8"?>
<svg id="Layer_1" xmlns="http://www.w3.org/2000/svg" version="1.1" viewBox="0 0 133 33">
  <!-- Generator: Adobe Illustrator 30.1.0, SVG Export Plug-In . SVG Version: 2.1.1 Build 136)  -->
  <defs>
    <style>
      .st0 {
        font-family: Balto-Black, Balto;
        font-weight: 800;
      }

      .st0, .st1, .st2, .st3, .st4 {
        isolation: isolate;
      }

      .st0, .st4 {
        font-size: 15.9px;
      }

      .st5 {
        fill: #fff;
      }

      .st2 {
        font-size: 12px;
      }

      .st2, .st3, .st4 {
        font-family: Vary-Bold, Vary;
        font-weight: 700;
      }

      .st3 {
        font-size: 15px;
      }
    </style>
  </defs>
  <g>
    <path d="M-378.1,46.5v26.5h26.5v-26.5h-26.5ZM-368.7,52.2l3.8,6.2,3.8-6.2h1.6l-5.4,8.7-5.4-8.7h1.6ZM-369.2,67.4h-1.4v-9.5l1.4,2.2v7.3ZM-359.2,67.4h-1.4v-7.3l1.4-2.2v9.5ZM-356.8,67.4h-1.4v-12.8l-4.5,7.2-1.3,2.2h-1.7l-1.3-2.2-4.5-7.2v12.8h-1.4v-15.2h1.5l5.2,8.4,1.4,2.1,1.4-2.1,5.2-8.3h1.5v15.2h-.1Z"/>
    <g>
      <path d="M-332.3,52h2.8v15.5h-3v-9.9l-3.5,5.7h-1.7l-3.6-5.7v9.9h-3v-15.5h2.9l4.5,7.3,4.6-7.3h0Z"/>
      <path d="M-319.3,66.5c-1,.8-2.1,1.3-3.5,1.3-3.1,0-5.7-2.3-5.7-5.4s2.4-5.4,5.5-5.4,2.6.5,3.5,1.3l-2,2c-.4-.3-.9-.5-1.5-.5-1.4,0-2.6,1.1-2.6,2.6s1.3,2.6,2.7,2.6,1.1-.2,1.5-.5l2,2h.1Z"/>
      <path d="M-308.1,55.5c-.7-.4-1.6-.8-2.6-.8-2.7,0-4.9,2.2-4.9,5s2.3,5,4.9,5,1.9-.3,2.6-.7l1.8,2.5c-1.2.8-2.7,1.3-4.3,1.3-4.4,0-8-3.5-8-8s3.6-8,8-8,3.1.5,4.3,1.3l-1.7,2.5h0Z"/>
      <path d="M-302.6,51.8v15.8h-3.1v-15.8h3.1Z"/>
      <path d="M-293.4,57.3h2.9v10.2h-2.9v-.7c-.8.6-1.9,1-3,1-2.9,0-5.3-2.3-5.3-5.4s2.4-5.4,5.3-5.4,2.2.4,3,.9v-.7h0ZM-293.6,63.9v-2.9c-.5-.8-1.3-1.3-2.3-1.3s-2.7,1.2-2.7,2.7,1.3,2.7,2.7,2.7,1.8-.5,2.3-1.2Z"/>
      <path d="M-280.1,66.5c-.7.6-1.7,1.3-3.3,1.3-2.5,0-4.3-1.8-4.3-4.7v-3.2h-1.6v-2.6h1.6v-2.9h3.1v2.9h3.5v2.6h-3.5v3.1c0,1.1.5,1.9,1.5,1.9s1-.3,1.3-.5l1.7,2.2h0Z"/>
      <path d="M-271.4,66.5c-1,.8-2.1,1.3-3.5,1.3-3.1,0-5.7-2.3-5.7-5.4s2.4-5.4,5.5-5.4,2.6.5,3.5,1.3l-2,2c-.4-.3-.9-.5-1.5-.5-1.4,0-2.6,1.1-2.6,2.6s1.3,2.6,2.7,2.6,1.1-.2,1.5-.5l2,2h.1Z"/>
      <path d="M-259.6,62.6v4.9h-3.1v-4.9c0-2.1-1-2.8-2.3-2.8s-1.9.6-2.3,1.3v6.5h-3.1v-15.8h3v6.4c.9-.7,1.9-1.1,3.1-1.1,2.4,0,4.8,1.6,4.8,5.5h0Z"/>
      <path d="M-251.7,57.3h3.3l-5.2,15.5h-3.3l1.7-5.1h-1l-3.4-10.4h3.2l2.3,8.1s2.4-8.1,2.4-8.1Z"/>
    </g>
    <g class="st1">
      <text class="st2" transform="translate(-242.6 57.5)"><tspan x="0" y="0">AD</tspan></text>
      <text class="st2" transform="translate(-242.6 70)"><tspan x="0" y="0">MANAGER</tspan></text>
    </g>
  </g>
  <g>
    <path d="M-378.1,105.2v26.5h26.5v-26.5h-26.5ZM-368.7,110.8l3.8,6.2,3.8-6.2h1.6l-5.4,8.7-5.4-8.7h1.6ZM-369.2,126h-1.4v-9.5l1.4,2.2v7.3ZM-359.2,126h-1.4v-7.3l1.4-2.2v9.5ZM-356.8,126h-1.4v-12.8l-4.5,7.2-1.3,2.2h-1.7l-1.3-2.2-4.5-7.2v12.8h-1.4v-15.2h1.5l5.2,8.4,1.4,2.1,1.4-2.1,5.2-8.3h1.5v15.2h-.1Z"/>
    <g>
      <path d="M-332.3,110.7h2.8v15.5h-3v-9.9l-3.5,5.7h-1.7l-3.6-5.7v9.9h-3v-15.5h2.9l4.5,7.3,4.6-7.3h0Z"/>
      <path d="M-319.3,125.2c-1,.8-2.1,1.3-3.5,1.3-3.1,0-5.7-2.3-5.7-5.4s2.4-5.4,5.5-5.4,2.6.5,3.5,1.3l-2,2c-.4-.3-.9-.5-1.5-.5-1.4,0-2.6,1.1-2.6,2.6s1.3,2.6,2.7,2.6,1.1-.2,1.5-.5l2,2h.1Z"/>
      <path d="M-308.1,114.2c-.7-.4-1.6-.8-2.6-.8-2.7,0-4.9,2.2-4.9,5s2.3,5,4.9,5,1.9-.3,2.6-.7l1.8,2.5c-1.2.8-2.7,1.3-4.3,1.3-4.4,0-8-3.5-8-8s3.6-8,8-8,3.1.5,4.3,1.3l-1.7,2.5h0Z"/>
      <path d="M-302.6,110.4v15.8h-3.1v-15.8s3.1,0,3.1,0Z"/>
      <path d="M-293.4,116h2.9v10.2h-2.9v-.7c-.8.6-1.9,1-3,1-2.9,0-5.3-2.3-5.3-5.4s2.4-5.4,5.3-5.4,2.2.4,3,.9v-.7h0ZM-293.6,122.5v-2.9c-.5-.8-1.3-1.3-2.3-1.3s-2.7,1.2-2.7,2.7,1.3,2.7,2.7,2.7,1.8-.5,2.3-1.2Z"/>
      <path d="M-280.1,125.2c-.7.6-1.7,1.3-3.3,1.3-2.5,0-4.3-1.8-4.3-4.7v-3.2h-1.6v-2.6h1.6v-2.9h3.1v2.9h3.5v2.6h-3.5v3.1c0,1.1.5,1.9,1.5,1.9s1-.3,1.3-.5l1.7,2.2h0Z"/>
      <path d="M-271.4,125.2c-1,.8-2.1,1.3-3.5,1.3-3.1,0-5.7-2.3-5.7-5.4s2.4-5.4,5.5-5.4,2.6.5,3.5,1.3l-2,2c-.4-.3-.9-.5-1.5-.5-1.4,0-2.6,1.1-2.6,2.6s1.3,2.6,2.7,2.6,1.1-.2,1.5-.5l2,2h.1Z"/>
      <path d="M-259.6,121.3v4.9h-3.1v-4.9c0-2.1-1-2.8-2.3-2.8s-1.9.6-2.3,1.3v6.5h-3.1v-15.8h3v6.4c.9-.7,1.9-1.1,3.1-1.1,2.4,0,4.8,1.6,4.8,5.5h0Z"/>
      <path d="M-251.7,116h3.3l-5.2,15.5h-3.3l1.7-5.1h-1l-3.4-10.4h3.2l2.3,8.1s2.4-8.1,2.4-8.1Z"/>
    </g>
  </g>
  <g>
    <path d="M-236.6,116.2l-.4-1.4h-3.4l-.5,1.4h-1.6l2.8-8.2h1.9l2.8,8.2h-1.6ZM-240,113.4h2.4l-1.2-3.7-1.2,3.7Z"/>
    <path d="M-231.3,108c2.4,0,4.1,1.6,4.1,4.1s-1.7,4.1-4.1,4.1h-2.9v-8.2h2.9ZM-231.3,114.7c1.4,0,2.5-1.1,2.5-2.6s-1.1-2.6-2.5-2.6h-1.3v5.2h1.3Z"/>
    <path d="M-235.5,120.5h1.5v8.2h-1.6v-5.2l-1.9,3h-.9l-1.9-3v5.2h-1.6v-8.2h1.5l2.4,3.8,2.4-3.8h.1Z"/>
    <path d="M-227.3,128.7l-.4-1.4h-3.4l-.5,1.4h-1.6l2.8-8.2h1.9l2.8,8.2h-1.6ZM-230.7,125.9h2.4l-1.2-3.7-1.2,3.7Z"/>
    <path d="M-219.7,120.5h1.6v8.2h-1.5l-3.6-5.5v5.5h-1.6v-8.2h1.5l3.6,5.4s0-5.4,0-5.4Z"/>
    <path d="M-211.4,128.7l-.4-1.4h-3.4l-.5,1.4h-1.6l2.8-8.2h1.9l2.8,8.2h-1.6ZM-214.7,125.9h2.4l-1.2-3.7-1.2,3.7Z"/>
    <path d="M-205.6,123.9h3.6v3c-.8,1.2-2.1,1.9-3.6,1.9-2.5,0-4.3-1.8-4.3-4.2s1.8-4.2,4.2-4.2,1.6.3,2.2.6l-.8,1.3c-.4-.2-.9-.4-1.4-.4-1.6,0-2.7,1.2-2.7,2.7s1,2.7,2.7,2.7,1.7-.5,2.1-1v-1h-2.1v-1.4h.1Z"/>
    <path d="M-195.6,122h-3.7v1.9h3.6v1.4h-3.6v2h3.7v1.5h-5.3v-8.2h5.3v1.5h0Z"/>
    <path d="M-188.3,128.7h-1.8l-1.5-2.9h-1v2.9h-1.6v-8.2h2.8c1.7,0,2.9,1,2.9,2.6s-.6,2-1.6,2.4l1.7,3.2h.1ZM-192.6,122v2.4h1.3c.7,0,1.3-.4,1.3-1.2s-.6-1.2-1.3-1.2c0,0-1.3,0-1.3,0Z"/>
  </g>
  <g>
    <path class="st5" d="M-378.1,181.8v26.5h26.5v-26.5h-26.5ZM-368.7,187.5l3.8,6.2,3.8-6.2h1.6l-5.4,8.7-5.4-8.7h1.6ZM-369.2,202.7h-1.4v-9.5l1.4,2.2v7.3ZM-359.2,202.7h-1.4v-7.3l1.4-2.2v9.5ZM-356.8,202.7h-1.4v-12.8l-4.5,7.2-1.3,2.2h-1.7l-1.3-2.2-4.5-7.2v12.8h-1.4v-15.2h1.5l5.2,8.4,1.4,2.1,1.4-2.1,5.2-8.3h1.5v15.2h-.1Z"/>
    <g>
      <path class="st5" d="M-332.3,187.3h2.8v15.5h-3v-9.9l-3.5,5.7h-1.7l-3.6-5.7v9.9h-3v-15.5h2.9l4.5,7.3,4.6-7.3h0Z"/>
      <path class="st5" d="M-319.3,201.8c-1,.8-2.1,1.3-3.5,1.3-3.1,0-5.7-2.3-5.7-5.4s2.4-5.4,5.5-5.4,2.6.5,3.5,1.3l-2,2c-.4-.3-.9-.5-1.5-.5-1.4,0-2.6,1.1-2.6,2.6s1.3,2.6,2.7,2.6,1.1-.2,1.5-.5l2,2h.1Z"/>
      <path class="st5" d="M-308.1,190.8c-.7-.4-1.6-.8-2.6-.8-2.7,0-4.9,2.2-4.9,5s2.3,5,4.9,5,1.9-.3,2.6-.7l1.8,2.5c-1.2.8-2.7,1.3-4.3,1.3-4.4,0-8-3.5-8-8s3.6-8,8-8,3.1.5,4.3,1.3l-1.7,2.5h0Z"/>
      <path class="st5" d="M-302.6,187.1v15.8h-3.1v-15.8h3.1Z"/>
      <path class="st5" d="M-293.4,192.6h2.9v10.2h-2.9v-.7c-.8.6-1.9,1-3,1-2.9,0-5.3-2.3-5.3-5.4s2.4-5.4,5.3-5.4,2.2.4,3,.9v-.7h0ZM-293.6,199.2v-2.9c-.5-.8-1.3-1.3-2.3-1.3s-2.7,1.2-2.7,2.7,1.3,2.7,2.7,2.7,1.8-.5,2.3-1.2Z"/>
      <path class="st5" d="M-280.1,201.8c-.7.6-1.7,1.3-3.3,1.3-2.5,0-4.3-1.8-4.3-4.7v-3.2h-1.6v-2.6h1.6v-2.9h3.1v2.9h3.5v2.6h-3.5v3.1c0,1.1.5,1.9,1.5,1.9s1-.3,1.3-.5l1.7,2.2h0Z"/>
      <path class="st5" d="M-271.4,201.8c-1,.8-2.1,1.3-3.5,1.3-3.1,0-5.7-2.3-5.7-5.4s2.4-5.4,5.5-5.4,2.6.5,3.5,1.3l-2,2c-.4-.3-.9-.5-1.5-.5-1.4,0-2.6,1.1-2.6,2.6s1.3,2.6,2.7,2.6,1.1-.2,1.5-.5l2,2h.1Z"/>
      <path class="st5" d="M-259.6,197.9v4.9h-3.1v-4.9c0-2.1-1-2.8-2.3-2.8s-1.9.6-2.3,1.3v6.5h-3.1v-15.8h3v6.4c.9-.7,1.9-1.1,3.1-1.1,2.4,0,4.8,1.6,4.8,5.5h0Z"/>
      <path class="st5" d="M-251.7,192.6h3.3l-5.2,15.5h-3.3l1.7-5.1h-1l-3.4-10.4h3.2l2.3,8.1,2.4-8.1Z"/>
    </g>
  </g>
  <g>
    <path class="st5" d="M-236.6,192.9l-.4-1.4h-3.4l-.5,1.4h-1.6l2.8-8.2h1.9l2.8,8.2h-1.6ZM-240,190.1h2.4l-1.2-3.7-1.2,3.7Z"/>
    <path class="st5" d="M-231.3,184.7c2.4,0,4.1,1.6,4.1,4.1s-1.7,4.1-4.1,4.1h-2.9v-8.2h2.9ZM-231.3,191.3c1.4,0,2.5-1.1,2.5-2.6s-1.1-2.6-2.5-2.6h-1.3v5.2h1.3Z"/>
    <path class="st5" d="M-235.5,197.2h1.5v8.2h-1.6v-5.2l-1.9,3h-.9l-1.9-3v5.2h-1.6v-8.2h1.5l2.4,3.8,2.4-3.8h.1Z"/>
    <path class="st5" d="M-227.3,205.4l-.4-1.4h-3.4l-.5,1.4h-1.6l2.8-8.2h1.9l2.8,8.2h-1.6ZM-230.7,202.6h2.4l-1.2-3.7-1.2,3.7Z"/>
    <path class="st5" d="M-219.7,197.2h1.6v8.2h-1.5l-3.6-5.5v5.5h-1.6v-8.2h1.5l3.6,5.4v-5.4Z"/>
    <path class="st5" d="M-211.4,205.4l-.4-1.4h-3.4l-.5,1.4h-1.6l2.8-8.2h1.9l2.8,8.2h-1.6ZM-214.7,202.6h2.4l-1.2-3.7-1.2,3.7Z"/>
    <path class="st5" d="M-205.6,200.5h3.6v3c-.8,1.2-2.1,1.9-3.6,1.9-2.5,0-4.3-1.8-4.3-4.2s1.8-4.2,4.2-4.2,1.6.3,2.2.6l-.8,1.3c-.4-.2-.9-.4-1.4-.4-1.6,0-2.7,1.2-2.7,2.7s1,2.7,2.7,2.7,1.7-.5,2.1-1v-1h-2.1v-1.4h.1Z"/>
    <path class="st5" d="M-195.6,198.6h-3.7v1.9h3.6v1.4h-3.6v2h3.7v1.5h-5.3v-8.2h5.3v1.5h0Z"/>
    <path class="st5" d="M-188.3,205.4h-1.8l-1.5-2.9h-1v2.9h-1.6v-8.2h2.8c1.7,0,2.9,1,2.9,2.6s-.6,2-1.6,2.4l1.7,3.2h.1ZM-192.6,198.6v2.4h1.3c.7,0,1.3-.4,1.3-1.2s-.6-1.2-1.3-1.2h-1.3Z"/>
  </g>
  <g>
    <path d="M-78.2,327.9v56.3H-21.9v-56.3h-56.3ZM-58.2,339.9l8.1,13.1,8.1-13.1h3.5l-11.6,18.6-11.6-18.6s3.5,0,3.5,0ZM-59.3,372.2h-2.9v-20.2l2.9,4.7v15.5ZM-37.9,372.2h-2.9v-15.5l2.9-4.7v20.2ZM-33,372.2h-2.9v-27.2l-9.5,15.4-2.7,4.6h-3.7l-2.8-4.6-9.5-15.4v27.2h-2.9v-32.3h3.2l11,17.8,2.9,4.5,2.9-4.5,11-17.7h3.2v32.3h-.2Z"/>
    <g>
      <path d="M-92.3,405.5h3.3v18.3h-3.5v-11.6l-4.2,6.7h-2l-4.2-6.7v11.6h-3.5v-18.3h3.4l5.3,8.5,5.4-8.5h0Z"/>
      <path d="M-77,422.6c-1.1.9-2.5,1.5-4.1,1.5-3.6,0-6.7-2.7-6.7-6.3s2.8-6.3,6.5-6.3,3,.6,4.1,1.5l-2.4,2.3c-.5-.4-1.1-.6-1.7-.6-1.6,0-3,1.3-3,3s1.5,3,3.2,3,1.3-.2,1.8-.6l2.4,2.4h-.1Z"/>
      <path d="M-63.9,409.7c-.9-.5-1.8-.9-3-.9-3.2,0-5.8,2.6-5.8,5.9s2.6,5.8,5.8,5.8,2.2-.3,3-.9l2.1,3c-1.4,1-3.2,1.5-5.1,1.5-5.2,0-9.5-4.1-9.5-9.4s4.3-9.5,9.5-9.5,3.6.5,5,1.5l-2,3Z"/>
      <path d="M-57.5,405.3v18.5h-3.6v-18.5h3.6Z"/>
      <path d="M-46.6,411.8h3.5v12h-3.5v-.8c-1,.7-2.2,1.1-3.6,1.1-3.4,0-6.2-2.7-6.2-6.3s2.8-6.3,6.2-6.3,2.6.4,3.6,1.1v-.8h0ZM-46.8,419.5v-3.4c-.6-.9-1.6-1.5-2.7-1.5-1.7,0-3.2,1.4-3.2,3.2s1.5,3.2,3.2,3.2,2.2-.6,2.7-1.5h0Z"/>
      <path d="M-31,422.6c-.8.7-2,1.5-3.9,1.5-2.9,0-5.1-2.1-5.1-5.6v-3.7h-1.8v-3h1.8v-3.4h3.7v3.4h4.1v3h-4.1v3.7c0,1.3.6,2.2,1.8,2.2s1.2-.3,1.6-.6l2,2.6h-.1Z"/>
      <path d="M-20.8,422.6c-1.1.9-2.5,1.5-4.1,1.5-3.6,0-6.7-2.7-6.7-6.3s2.8-6.3,6.5-6.3,3,.6,4.1,1.5l-2.4,2.3c-.5-.4-1.1-.6-1.7-.6-1.6,0-3,1.3-3,3s1.5,3,3.2,3,1.3-.2,1.8-.6l2.4,2.4h-.1Z"/>
      <path d="M-6.9,418v5.8h-3.7v-5.8c0-2.4-1.1-3.3-2.7-3.3s-2.2.7-2.8,1.5v7.6h-3.7v-18.5h3.6v7.5c1-.8,2.3-1.3,3.7-1.3,2.9,0,5.6,1.8,5.6,6.5h0Z"/>
      <path d="M2.4,411.8h3.8L0,430.1h-3.9l2-6h-1.2l-4-12.3h3.8l2.7,9.5,2.8-9.5h.1Z"/>
    </g>
  </g>
  <g class="st1">
    <text class="st4" transform="translate(-115.1 452.1)"><tspan x="0" y="0">RETAIL</tspan></text>
    <text class="st0" transform="translate(-64.9 452.1)"><tspan x="0" y="0"> </tspan></text>
    <text class="st4" transform="translate(-61.5 452.1)"><tspan x="0" y="0">NETWORK</tspan></text>
  </g>
  <g>
    <g>
      <path d="M-129.5-64.8V-8.5h56.3v-56.3h-56.3ZM-109.5-52.8l8.1,13.1,8.1-13.1h3.5l-11.6,18.6-11.6-18.6s3.5,0,3.5,0ZM-110.6-20.5h-2.9v-20.2l2.9,4.7v15.5ZM-89.2-20.5h-2.9v-15.5l2.9-4.7v20.2ZM-84.3-20.5h-2.9v-27.2l-9.5,15.4-2.7,4.6h-3.7l-2.8-4.6-9.5-15.4v27.2h-2.9v-32.3h3.2l11,17.8,2.9,4.5,2.9-4.5,11-17.7h3.2V-20.5h-.2Z"/>
      <g>
        <path d="M-135.9,12.8h2.7v15h-2.9v-9.5l-3.4,5.5h-1.7l-3.4-5.5v9.5h-2.9v-15h2.8l4.4,7s4.4-7,4.4-7Z"/>
        <path d="M-123.4,26.8c-.9.8-2,1.2-3.4,1.2-3,0-5.5-2.2-5.5-5.2s2.3-5.2,5.3-5.2,2.5.5,3.4,1.3l-1.9,1.9c-.4-.3-.9-.5-1.4-.5-1.3,0-2.5,1.1-2.5,2.5s1.3,2.5,2.6,2.5,1-.2,1.4-.5l1.9,1.9h0Z"/>
        <path d="M-112.7,16.2c-.7-.4-1.5-.7-2.5-.7-2.6,0-4.8,2.1-4.8,4.8s2.2,4.8,4.8,4.8,1.8-.3,2.5-.7l1.7,2.4c-1.2.8-2.6,1.3-4.2,1.3-4.3,0-7.7-3.3-7.7-7.7s3.5-7.7,7.7-7.7,3,.4,4.1,1.2l-1.7,2.5v-.2Z"/>
        <path d="M-107.4,12.5v15.2h-2.9v-15.2h2.9Z"/>
        <path d="M-98.5,17.9h2.8v9.8h-2.8v-.7c-.8.6-1.8.9-2.9.9-2.8,0-5.1-2.2-5.1-5.2s2.3-5.2,5.1-5.2,2.1.4,2.9.9v-.7.2ZM-98.7,24.2v-2.8c-.5-.7-1.3-1.2-2.2-1.2-1.4,0-2.6,1.1-2.6,2.6s1.2,2.6,2.6,2.6,1.8-.5,2.2-1.2Z"/>
        <path d="M-85.7,26.8c-.7.5-1.7,1.2-3.2,1.2-2.4,0-4.1-1.8-4.1-4.6v-3.1h-1.5v-2.5h1.5v-2.8h3v2.8h3.3v2.5h-3.3v3c0,1.1.5,1.8,1.5,1.8s1-.3,1.3-.5l1.6,2.1h-.1Z"/>
        <path d="M-77.3,26.8c-.9.8-2,1.2-3.4,1.2-3,0-5.5-2.2-5.5-5.2s2.3-5.2,5.3-5.2,2.5.5,3.4,1.3l-1.9,1.9c-.4-.3-.9-.5-1.4-.5-1.3,0-2.5,1.1-2.5,2.5s1.3,2.5,2.6,2.5,1-.2,1.4-.5l1.9,1.9h0Z"/>
        <path d="M-65.9,23v4.8h-3v-4.8c0-2-.9-2.7-2.2-2.7s-1.8.6-2.3,1.3v6.2h-3v-15.2h2.9v6.2c.8-.7,1.9-1.1,3-1.1,2.3,0,4.6,1.5,4.6,5.3Z"/>
        <path d="M-58.3,17.9h3.1l-5,15h-3.2l1.7-4.9h-1l-3.3-10.1h3.1l2.2,7.8,2.3-7.8h.1Z"/>
      </g>
    </g>
    <g class="st1">
      <text class="st3" transform="translate(-147.6 56.2)"><tspan x="0" y="0">AD MANAGER</tspan></text>
    </g>
  </g>
  <g>
    <path d="M0,7.2v18.5h18.5V7.2H0ZM6.6,11.2l2.7,4.3,2.7-4.3h1.1l-3.8,6.1-3.8-6.1s1.1,0,1.1,0ZM6.2,21.9h-1v-6.6l1,1.5v5.1ZM13.3,21.9h-1v-5.1l1-1.5v6.6ZM14.9,21.9h-1v-9l-3.2,5.1-.9,1.5h-1.2l-.9-1.5-3.2-5.1v9h-1v-10.7h1.1l3.6,5.8,1,1.5,1-1.5,3.6-5.8h1.1v10.7h0Z"/>
    <g>
      <path d="M32.1,11.1h1.9v10.9h-2.1v-7l-2.5,4h-1.2l-2.5-4v6.9h-2.1v-10.9h2l3.2,5.1,3.2-5.1h0Z"/>
      <path d="M41.3,21.3c-.6.6-1.5.9-2.4.9-2.2,0-4-1.6-4-3.8s1.7-3.7,3.9-3.7,1.8.3,2.4.9l-1.4,1.4c-.2-.2-.6-.3-1.1-.3-1,0-1.8.8-1.8,1.8s.9,1.8,1.9,1.8.7-.2,1.1-.3l1.5,1.5h0Z"/>
      <path d="M49.1,13.5c-.5-.3-1.1-.6-1.8-.6-1.9,0-3.5,1.5-3.5,3.5s1.6,3.5,3.5,3.5,1.3-.2,1.8-.5l1.2,1.8c-.8.6-1.9.9-3.1.9-3.1,0-5.7-2.4-5.7-5.7s2.5-5.7,5.7-5.7,2.2.3,3,.9l-1.2,1.8h0Z"/>
      <path d="M52.9,11v11.1h-2.1v-11.1h2.1Z"/>
      <path d="M59.4,14.8h2v7.1h-2v-.5c-.6.4-1.3.6-2.1.6-2,0-3.7-1.6-3.7-3.7s1.6-3.8,3.7-3.8,1.5.2,2.1.6v-.5h0ZM59.2,19.5v-2c-.3-.6-1-.9-1.6-.9-1,0-1.9.8-1.9,1.9s.9,1.9,1.9,1.9,1.3-.3,1.6-.9h0Z"/>
      <path d="M68.7,21.3c-.5.4-1.2.9-2.3.9-1.8,0-3-1.3-3-3.3v-2.2h-1.1v-1.8h1.1v-2h2.2v2h2.4v1.8h-2.4v2.2c0,.8.4,1.3,1.1,1.3s.7-.2.9-.4l1.1,1.5h0Z"/>
      <path d="M74.7,21.3c-.6.6-1.5.9-2.4.9-2.2,0-4-1.6-4-3.8s1.7-3.7,3.9-3.7,1.8.3,2.4.9l-1.4,1.4c-.2-.2-.6-.3-1.1-.3-1,0-1.8.8-1.8,1.8s.9,1.8,1.9,1.8.7-.2,1.1-.3l1.5,1.5h0Z"/>
      <path d="M83.1,18.6v3.5h-2.2v-3.5c0-1.5-.6-2-1.6-2s-1.3.4-1.6.9v4.5h-2.2v-11.1h2.1v4.5c.6-.5,1.4-.8,2.2-.8,1.7,0,3.4,1.1,3.4,3.9h0Z"/>
      <path d="M88.6,14.8h2.3l-3.6,10.9h-2.3l1.2-3.6h-.7l-2.3-7.3h2.3l1.6,5.7,1.7-5.7h0Z"/>
    </g>
    <g class="st1">
      <g class="st1">
        <path d="M99.2,14.9l-.3-.9h-2.4l-.3.9h-1.1l2-5.7h1.3l2,5.7h-1.1ZM96.8,13h1.7l-.9-2.6-.9,2.6Z"/>
        <path d="M102.9,9.2c1.7,0,2.9,1.2,2.9,2.9s-1.2,2.9-2.9,2.9h-2v-5.7h2ZM102.9,13.9c1,0,1.8-.8,1.8-1.8s-.7-1.8-1.8-1.8h-.9v3.6h.9Z"/>
      </g>
      <g class="st1">
        <path d="M99.9,17.9h1v5.7h-1.1v-3.7l-1.3,2.1h-.6l-1.3-2.1v3.6h-1.1v-5.7h1.1l1.7,2.7,1.7-2.7Z"/>
        <path d="M105.7,23.7l-.3-.9h-2.4l-.3.9h-1.1l2-5.7h1.3l2,5.7h-1.1ZM103.3,21.7h1.7l-.9-2.6-.9,2.6Z"/>
        <path d="M111,17.9h1.1v5.7h-1.1l-2.6-3.8v3.8h-1.1v-5.7h1.1l2.6,3.8v-3.8Z"/>
        <path d="M116.8,23.7l-.3-.9h-2.4l-.3.9h-1.1l2-5.7h1.3l2,5.7h-1.1ZM114.5,21.7h1.7l-.9-2.6-.9,2.6Z"/>
        <path d="M120.9,20.3h2.5v2.1c-.5.8-1.4,1.4-2.5,1.4-1.8,0-3-1.3-3-3s1.3-3,3-3,1.2.2,1.5.4l-.6.9c-.3-.2-.6-.3-1-.3-1.1,0-1.9.8-1.9,1.9s.7,1.9,1.9,1.9,1.2-.3,1.5-.7v-.7h-1.5v-1Z"/>
        <path d="M127.9,18.9h-2.6v1.3h2.5v1h-2.5v1.4h2.6v1h-3.7v-5.7h3.7v1Z"/>
        <path d="M133,23.7h-1.2l-1.1-2h-.7v2h-1.1v-5.7h2c1.2,0,2,.7,2,1.9s-.4,1.4-1.1,1.7l1.2,2.2ZM130,18.9v1.7h.9c.5,0,.9-.3.9-.8s-.4-.8-.9-.8h-.9Z"/>
      </g>
    </g>
  </g>
</svg>